<svg width="89" height="87" viewBox="0 0 89 87" fill="none" xmlns="http://www.w3.org/2000/svg">
<path d="M76.46 68.64C73.82 70.82 71.33 73.26 68.46 75.01C67.59 75.54 65.46 74.42 64.11 73.63C58.34 70.11 51.44 73 50.59 79.68C50.2 82.77 48.75 83.68 46.04 83.68C44.43 83.68 42.82 83.68 41.21 83.61C38.92 83.55 37.76 82.61 37.4 80.1C36.27 72.27 29.26 69.4 22.9 74.15C20.99 75.58 19.63 75.51 18.08 73.96C16.94 72.82 15.8 71.69 14.64 70.58C12.58 68.58 12.08 66.93 14.13 64.26C18.45 58.63 15.26 51.52 8.12997 50.44C5.52997 50.04 4.39997 48.87 4.46997 46.32C4.46997 44.84 4.52997 43.32 4.46997 41.87C4.29997 38.93 5.26999 37.46 8.54999 37.03C15.65 36.11 18.72 28.69 14.27 23.11C12.27 20.58 12.72 19.02 14.69 17.11C15.95 15.92 17.19 14.71 18.42 13.5C20.01 11.94 21.42 11.99 23.27 13.38C29.67 18.06 36.53 15.19 37.79 7.32C38.13 5.17 38.96 4.21999 41.06 4.21999C42.42 4.21999 43.78 4.22001 45.15 4.14001C48.38 4.02001 50.52 4.37999 50.97 8.71999C51.64 15.08 59.24 18.13 64.35 14.19C67.52 11.75 69.35 12.65 71.5 15.03C72.41 16.03 73.36 17.03 74.31 18.03C75.83 19.58 75.96 20.9 74.49 22.83C69.8 28.98 72.49 35.96 80.02 37.33C82.6 37.8 83.77 38.9 83.74 41.4C83.74 43.4 83.67 45.35 83.61 47.33C83.55 49.31 82.61 50.25 80.41 50.54C72.41 51.59 69.61 58.54 74.32 65.26C74.8 65.94 75.18 66.69 75.61 67.41L76.46 68.64ZM56.55 62.7C53.96 60.36 51.55 58.43 49.42 56.17C48.6482 55.1738 47.5949 54.4324 46.3967 54.0419C45.1985 53.6514 43.9106 53.6298 42.7 53.98C33.7 55.71 25.4 47.18 26.87 38.16C27.02 37.26 27.61 35.78 28.1 35.73C29.1366 35.7839 30.1211 36.2017 30.88 36.91C32.3138 38.11 33.6512 39.4207 34.88 40.83C37.06 43.29 39.69 42.71 41.99 41.53C43.78 40.61 43.26 36.15 41.45 34.25L35.14 27.62C36.5708 26.9874 38.0572 26.4886 39.58 26.13C48.34 25.13 56.09 33.39 54.67 42.13C54.45 43.53 53.91 45.51 54.59 46.32C57.31 49.57 60.46 52.47 63.54 55.59C66.4983 50.7748 67.5497 45.0276 66.4877 39.4769C65.4256 33.9262 62.3269 28.9731 57.8 25.59C53.255 22.2077 47.6184 20.6285 41.9777 21.1571C36.337 21.6857 31.092 24.2847 27.2546 28.4527C23.4173 32.6206 21.2596 38.062 21.1978 43.7271C21.136 49.3921 23.1745 54.8794 26.92 59.13C30.5461 63.2792 35.5794 65.9397 41.0502 66.5988C46.521 67.258 52.0422 65.8692 56.55 62.7V62.7Z" fill="black"/>
</svg>
