<svg width="1536" height="114" viewBox="0 0 1536 114" fill="none" xmlns="http://www.w3.org/2000/svg">
<g clip-path="url(#clip0_506_634)">
<path d="M1536.5 -0.5V80.5C1476.5 76.3333 1331.6 66.3 1232 59.5C1107.5 51 701 60.5 645.5 59.5C590 58.5 435.5 83.5 280 104.5C155.6 121.3 41.5 111.5 0 104.5V-0.5H1536.5Z" fill="white" fill-opacity="0.33"/>
<path d="M0 88V-0.5H1536.5V53.5C1109 156.5 918.5 99 773.5 69.5C628.5 40 434.5 67 312 88C214 104.8 63.1667 95 0 88Z" fill="white" fill-opacity="0.33"/>
<path d="M408 48.4999C289.2 44.4999 86.5 64.4999 0 74.9999V-0.5H1536.5V39.5C1478.17 48.3333 1323 69.6 1169 84C976.5 102 556.5 53.4999 408 48.4999Z" fill="white"/>
</g>
<defs>
<clipPath id="clip0_506_634">
<rect width="1536" height="114" fill="white"/>
</clipPath>
</defs>
</svg>
